<svg width="67" height="30" viewBox="0 0 67 30" fill="none" xmlns="http://www.w3.org/2000/svg">
<path d="M17.6995 14.0933C15.3217 14.0933 15.1328 12.2687 15.1328 11.7314C15.1328 11.0933 15.2773 9.90675 16.8217 9.33586C18.3662 8.76496 18.6995 8.6978 19.7995 8.35078V8.08213C19.7995 7.54481 19.7995 7.44406 19.6773 7.09705C19.4884 6.48138 18.8884 6.0672 18.055 6.0672C17.2662 6.0672 16.5884 6.51496 16.2773 7.17541L15.8328 6.90675C16.0995 5.92168 17.1106 4.9366 18.8439 4.9366C20.0439 4.9366 20.8773 5.28362 21.3662 6.04481C21.7328 6.66048 21.7773 7.48884 21.7773 8.32839C21.7773 9.08959 21.7328 9.92914 21.7328 10.612C21.7328 11.0597 21.6884 11.4963 21.6884 11.7426C21.6884 12.3582 21.8106 12.8508 22.2995 12.8508C22.5217 12.8508 22.5662 12.7724 22.7439 12.6605L23.0106 13.0075C22.5662 13.6232 22.0328 14.1157 21.155 14.1157C20.4773 14.1157 19.9884 13.7687 19.7884 13.209C19.5106 13.6008 18.7884 14.0933 17.6995 14.0933ZM19.7995 9.4478C18.6328 9.79481 18.2106 9.98511 17.8773 10.1642C17.3439 10.4329 17.1217 10.9254 17.1217 11.5635C17.1217 12.056 17.3106 12.8508 18.4439 12.8508C18.8106 12.8508 19.3439 12.7724 19.8328 12.4366V9.4366H19.7995V9.4478ZM0.166157 13.6232C0.166157 12.7388 0.166157 11.9888 0.0883789 11.0821H0.621712C0.621712 11.653 0.766156 12.0672 1.03282 12.3359C1.39949 12.75 2.27727 13.0187 3.06616 13.0187C4.72171 13.0187 5.5106 12.3806 5.5106 11.0038C5.5106 9.82839 4.79949 9.33586 3.82171 8.64183L3.67727 8.51869L2.62171 7.80228C1.15505 6.8172 0.39949 6.05601 0.39949 4.50003C0.39949 3.73884 0.69949 1.23138 4.35504 1.23138C5.29949 1.23138 6.49949 1.35451 7.22171 1.45526C7.22171 1.57839 7.17727 2.13809 7.17727 2.63063C7.17727 3.20153 7.17727 3.34705 7.22171 4.02989H6.77727C6.77727 3.41421 6.58838 3.04481 6.33282 2.77615C5.98838 2.42914 5.2106 2.23884 4.37727 2.23884C2.42171 2.23884 2.19949 3.22392 2.19949 3.98511C2.19949 5.01496 2.73282 5.38436 3.88838 6.14556L5.2106 7.02989C6.33282 7.79108 7.38838 8.5075 7.38838 10.4105C7.38838 13.6008 4.4106 13.9366 3.16616 13.9366C2.02171 14.0933 1.06616 13.9254 0.166157 13.6232ZM23.8328 5.5075C24.2773 5.55227 24.955 5.5075 25.6106 5.38436C26.1773 5.26123 26.3661 5.19407 26.7773 5.01496L26.9662 5.13809V5.82093C27.4106 5.47392 28.2884 4.98138 29.5328 4.98138C31.1217 4.98138 32.1439 5.74257 32.4328 7.07466C32.5106 7.42168 32.555 8.20526 32.555 8.67541V11.2612C32.555 12.7053 32.6328 13.1306 32.8995 13.3881C33.0439 13.5112 33.3439 13.6568 33.7773 13.6568V14.0709C33.2106 14.0262 32.1884 13.9926 31.5995 13.9926C30.8106 13.9926 29.9106 14.0373 29.4217 14.0709V13.6568C29.8661 13.612 30.1328 13.4665 30.2995 13.3545C30.5662 13.0859 30.5995 12.5933 30.6439 11.4851C30.6439 11.1381 30.6884 10.4553 30.6884 9.96272C30.6884 9.32466 30.6884 8.63063 30.6106 7.9478C30.4884 6.8172 29.8995 6.27989 28.755 6.27989C27.9662 6.27989 27.4773 6.47018 27.0995 6.64929V11.2836C27.0995 12.7276 27.1773 13.153 27.4439 13.4105C27.5884 13.5336 27.9328 13.6791 28.2773 13.6791V14.0933C27.5661 14.0485 26.6884 14.015 26.1328 14.015C24.9662 14.015 24.5884 14.0597 23.9106 14.0933V13.6568C24.2773 13.6568 24.6661 13.5112 24.855 13.2873C25.1217 12.9851 25.155 12.2239 25.155 10.7463V8.11571C25.155 7.0075 25.1106 6.55974 24.9662 6.32466C24.8439 6.13436 24.555 5.97765 23.9439 5.97765V5.48511H23.8661V5.5075H23.8328ZM34.7328 13.6008C35.0995 13.6008 35.4884 13.4776 35.6773 13.2314C35.9439 12.9291 35.9773 12.1679 35.9773 10.6903V6.26869H34.855V5.77615C35.3439 5.58586 35.755 5.36198 35.9773 5.16048C35.9773 4.36571 36.0217 3.36944 36.1217 2.79854C36.4661 0.973916 37.6328 0.0671997 39.6217 0.0671997C40.4995 0.0671997 41.3106 0.369438 41.8439 0.783617L41.8884 0.973915L41.0106 2.18287H40.7884C40.4884 1.46645 40.0328 1.05227 39.2439 1.05227C38.9773 1.05227 38.6106 1.13063 38.3661 1.35451C37.9995 1.72392 37.9217 2.30601 37.9217 3.4478V5.14929H39.8773V6.2575H37.9217V11.1605C37.9217 12.3359 37.9661 12.9068 38.1106 13.1306C38.3328 13.5 39.1328 13.5448 39.4995 13.5448V13.9926C38.8661 13.9478 37.8439 13.9142 37.1217 13.9142C36.0217 13.9142 35.3106 13.959 34.7439 13.9926L34.7328 13.6008ZM44.8328 14.1605C42.1661 14.1605 40.5773 12.4926 40.5773 9.68287C40.5773 7.48884 41.7439 4.9366 45.0217 4.9366C47.6884 4.9366 49.2773 6.60451 49.2773 9.41422C49.2773 11.6082 48.0995 14.1605 44.8328 14.1605ZM44.9439 5.95526C44.4106 5.95526 43.9995 6.10078 43.6995 6.36944C42.9884 6.98511 42.6439 8.03735 42.6439 9.59332C42.6439 10.209 42.7661 13.1642 44.9106 13.1642C45.4439 13.1642 45.855 13.0187 46.155 12.75C46.8661 12.1344 47.2106 11.0821 47.2106 9.52616C47.1995 8.92168 47.0995 5.95526 44.9439 5.95526ZM50.1773 5.46272C50.7884 5.5075 51.4217 5.41795 52.0995 5.3172C52.6328 5.23884 52.9773 5.1269 53.155 5.01496L53.2995 5.09332V5.85451C53.7106 5.44033 54.3995 5.01496 55.3328 5.01496C56.0106 5.01496 56.455 5.20526 56.8773 5.55227V5.82093L56.1217 7.1978H55.755C55.5328 6.78362 55.0773 6.40302 54.2884 6.40302C53.9217 6.40302 53.6106 6.48138 53.3439 6.67168V11.1941C53.3439 12.3694 53.3884 12.8956 53.5328 13.1306C53.755 13.5 54.5106 13.5448 54.9217 13.5V13.9926C54.3106 13.9478 53.2661 13.9142 52.5439 13.9142C51.7106 13.9142 50.855 13.9142 50.1661 13.9926V13.5448C50.655 13.5 50.9217 13.3993 51.1106 13.1754C51.3773 12.8732 51.4106 12.1456 51.4106 10.6344V8.17168C51.4106 7.06347 51.4106 6.61571 51.2217 6.38063C51.0773 6.19033 50.7773 6.07839 50.1995 6.07839V5.5075L50.1773 5.46272ZM62.5106 0.604512C63.0439 0.604512 63.7106 0.481378 64.5884 0.335856C65.0772 0.257498 65.3773 0.145557 65.5328 0.111975L65.6772 0.190333C65.5995 0.906751 65.5995 2.55227 65.5995 3.71645V10.9254C65.5995 11.9888 65.5995 12.6717 65.7439 12.8956C65.8884 13.0859 66.1884 13.2426 66.7661 13.2426V13.6903C66.1995 13.6903 65.5661 13.7687 64.8884 13.8806C64.4439 13.959 64.0995 14.0262 63.9106 14.1045L63.6884 14.0262V13.265C63.2439 13.612 62.4106 14.1045 61.2439 14.1045C58.8328 14.1045 57.2884 12.4366 57.2884 9.8172C57.2884 8.93287 57.4328 8.14929 57.7328 7.42168C58.4884 5.82093 59.9995 4.91421 61.9106 4.91421C62.6217 4.91421 63.2328 4.99257 63.5995 5.05974V3.19033C63.5995 2.08212 63.5995 1.52242 63.4106 1.25377C63.2884 1.06347 63.1106 0.98511 62.4661 0.951527V0.593319H62.5106V0.604512ZM62.1995 12.862C62.8106 12.862 63.2217 12.7836 63.6328 12.515V6.60451C63.4884 6.45899 62.955 5.98884 61.8995 5.98884C60.2106 5.98884 59.3773 7.16421 59.3773 9.60451C59.3439 10.6232 59.6439 12.862 62.1995 12.862ZM14.2662 13.1306C13.9995 13.4776 13.3217 14.1605 11.8884 14.1605C10.5217 14.1605 9.77726 13.6679 9.44393 12.5597C9.29949 12.1456 9.29949 11.2724 9.29949 10.7687C9.29949 9.36944 9.29949 8.22765 9.34393 6.89556V6.27989H8.16615V5.93287C8.6106 5.74257 8.95504 5.56347 9.26616 5.3172C9.94393 4.77989 10.3884 4.14183 10.8884 3.19033H11.255V5.16048H14.2328V6.26869H11.255V10.903C11.255 12.3023 11.5217 13.0635 12.7995 13.0635C13.4106 13.0635 13.8217 12.8732 14.0439 12.7165L14.2662 13.1306Z" fill="#223034"/>
<path d="M56.0328 21.4142C55.8884 21.4142 55.6884 21.459 55.5884 21.5597C55.4662 21.6381 55.4662 21.75 55.4662 21.8284C55.4662 21.9739 55.5106 22.0971 55.6106 22.3993L56.4439 24.5933C56.5662 24.9403 56.6662 25.209 56.7106 25.3881L57.7328 22.3881C57.855 22.0411 57.8773 21.9739 57.8773 21.8172C57.8773 21.7388 57.8328 21.6717 57.7551 21.5933C57.6328 21.515 57.4884 21.4478 57.3106 21.4478V21.1008C57.4328 21.1008 57.6773 21.1008 57.7995 21.1456C57.9217 21.1456 58.1439 21.1903 58.3328 21.1903C58.6995 21.1903 59.2328 21.1456 59.455 21.1456V21.4926C59.3106 21.5374 58.9662 21.4478 58.6662 22.3321L56.5217 28.0971C56.2217 28.9366 55.8106 29.9665 54.3439 29.9665C53.7328 29.9665 53.3217 29.8209 52.9773 29.5187V29.3732L53.5106 28.7351H53.655C53.7995 29.0821 54.0995 29.2277 54.5328 29.2277C55.2106 29.2277 55.5106 28.612 55.9662 27.403L56.0884 27.056L54.2884 22.3209C54.2884 22.2762 54.2439 22.1978 54.2106 22.1306C54.1662 22.0075 54.0662 21.7836 54.0662 21.7836C53.9439 21.5597 53.7662 21.4814 53.5328 21.4814V21.1344C53.8773 21.1791 54.4773 21.1791 54.7773 21.1791C54.9662 21.1791 55.2662 21.1791 55.5662 21.1344C55.7106 21.1344 55.9773 21.0896 56.0995 21.0896V21.3918H56.055V21.4142H56.0328ZM36.0773 21.3359C36.4439 21.3806 36.8661 21.2911 37.2773 21.2127C37.6217 21.1344 37.8106 21.0896 37.955 21.0224L38.0773 21.0672V21.5597C38.3439 21.2911 38.755 21.0224 39.355 21.0224C39.7995 21.0224 40.0662 21.1456 40.3328 21.3694V21.5597L39.8884 22.4441H39.6662C39.5217 22.1754 39.255 21.9515 38.7217 21.9515C38.4995 21.9515 38.3106 22.0299 38.1106 22.1418V24.9963C38.1106 25.7575 38.155 26.1045 38.2328 26.25C38.3773 26.4739 38.8439 26.5187 39.1106 26.5187V26.8209C38.7439 26.7762 38.055 26.7762 37.5995 26.7762C37.0662 26.7762 36.4995 26.7762 36.0884 26.8545V26.5523C36.3884 26.5523 36.5773 26.4291 36.6995 26.3284C36.8884 26.1381 36.8884 25.6903 36.8884 24.6941V23.0933C36.8884 22.4105 36.8884 22.1083 36.7661 21.9627C36.6884 21.8396 36.4662 21.7724 36.1328 21.7724V21.3583H36.0773V21.3359ZM10.9884 26.8433C9.39947 26.8433 8.46614 26.3508 8.12169 25.2874C7.9328 24.75 7.9328 24.0784 7.9328 23.5411V20.5075C7.9328 19.6008 7.88836 19.4441 7.71058 19.2986C7.6328 19.2202 7.44391 19.153 7.17725 19.1083V18.806C7.54391 18.8508 8.19947 18.8844 8.56614 18.8844C9.19947 18.8844 9.58836 18.8844 9.99947 18.806V19.153C9.7328 19.153 9.55503 19.2314 9.38836 19.3769C9.19947 19.5672 9.19947 19.9142 9.19947 20.8993V23.5859C9.19947 25.1866 9.34391 26.2165 11.1217 26.2165C12.9328 26.2165 13.0439 25.153 13.0439 23.5299V20.5747C13.0439 19.668 12.9995 19.5112 12.8217 19.3657C12.6995 19.2874 12.5217 19.2202 12.2884 19.1754V18.8732C12.6328 18.8732 13.0773 18.918 13.5328 18.918C13.9439 18.918 14.3661 18.918 14.855 18.8396V19.1866C14.5884 19.1866 14.4106 19.265 14.2439 19.4105C14.055 19.6008 14.055 19.9478 14.055 20.9329V23.2165C14.055 23.9329 14.055 24.7388 13.8328 25.3769C13.4772 26.3508 12.5661 26.8433 10.9884 26.8433ZM21.7328 26.4963C22.0328 26.4515 22.2217 26.418 22.3661 26.2724C22.555 26.0821 22.555 25.6344 22.555 24.6381V23.0374C22.555 22.3545 22.555 22.0075 22.4328 21.862C22.355 21.7388 22.2106 21.6717 21.7995 21.6381V21.2911C22.0217 21.3359 22.6328 21.2463 23.0773 21.168C23.2995 21.1232 23.5217 21.0448 23.6884 20.9777L23.8106 21.1008C23.7661 21.4702 23.7661 22.2762 23.7661 23.3396V24.9739C23.7661 25.7351 23.8106 26.0821 23.8884 26.2277C24.0106 26.3732 24.2328 26.4963 24.5661 26.4963V26.765C24.2661 26.7202 23.6884 26.7202 23.1995 26.7202C22.6328 26.7202 22.0328 26.765 21.7328 26.7985V26.4963ZM23.1217 20.0038C22.6773 20.0038 22.4106 19.7351 22.4106 19.3209C22.4106 18.9068 22.7106 18.6045 23.1661 18.6045C23.6106 18.6045 23.8773 18.8732 23.8773 19.2874C23.8661 19.7351 23.5661 20.0038 23.1217 20.0038ZM45.555 26.4963C45.855 26.4515 46.0439 26.418 46.1884 26.2724C46.3773 26.0821 46.3773 25.6344 46.3773 24.6381V23.0374C46.3773 22.3545 46.3773 22.0075 46.255 21.862C46.1773 21.7388 46.0328 21.6717 45.6217 21.6381V21.2911C45.8439 21.3359 46.455 21.2463 46.8995 21.168C47.1217 21.1232 47.3884 21.0448 47.5106 20.9777L47.6328 21.1008C47.5884 21.4702 47.5884 22.2762 47.5884 23.3396V24.9739C47.5884 25.7351 47.6328 26.0821 47.7106 26.2277C47.8328 26.3732 48.055 26.4963 48.3884 26.4963V26.765C48.0439 26.7202 47.4884 26.7202 46.9995 26.7202C46.4328 26.7202 45.8328 26.765 45.5328 26.7985V26.4963H45.555ZM46.9439 20.0038C46.4995 20.0038 46.2328 19.7351 46.2328 19.3209C46.2328 18.9068 46.5328 18.6045 46.9884 18.6045C47.4328 18.6045 47.6995 18.8732 47.6995 19.2874C47.6995 19.7351 47.3884 20.0038 46.9439 20.0038ZM40.9884 26.5747C40.9884 26.0038 40.9439 25.3993 40.9106 25.0971H41.2773C41.2773 25.3993 41.355 25.668 41.4995 25.8135C41.7217 26.0821 41.9884 26.1829 42.4773 26.1829H42.555C43.1662 26.1829 43.4995 25.9142 43.4995 25.3881C43.4995 24.9739 43.2328 24.7724 42.7884 24.5038L41.9995 24.0112C41.5884 23.7426 41.0995 23.3732 41.0995 22.5672C41.0995 21.9291 41.3662 21.4366 41.8884 21.168C42.2328 20.9777 42.7662 20.9777 43.0106 20.9777C43.455 20.9777 44.1106 21.056 44.4773 21.1232C44.4328 21.2687 44.4328 21.6605 44.4328 21.806C44.4328 21.9291 44.4328 22.4441 44.4773 22.5672H44.1106C44.1106 22.3433 44.0328 22.1194 43.8884 21.9291C43.7439 21.7388 43.3995 21.6269 42.9884 21.6269C42.4217 21.6269 42.1106 21.8508 42.1106 22.3433C42.1106 22.7127 42.4106 22.9142 42.6773 23.1045H42.7217L43.4773 23.5523C43.9662 23.8545 44.5995 24.2351 44.5995 25.1082C44.5995 26.5859 43.2328 26.8097 42.455 26.8097C42.0106 26.7985 41.5217 26.765 40.9884 26.5747ZM52.8217 26.2053C52.6328 26.3956 52.2106 26.8433 51.3106 26.8433C50.4328 26.8433 49.9439 26.5411 49.7662 25.8135C49.6884 25.5448 49.6884 24.9739 49.6884 24.6829C49.6884 23.7762 49.6884 23.0485 49.6884 22.2202V21.8508H48.9328V21.6269C49.2328 21.5038 49.4217 21.403 49.6439 21.2575C50.055 20.9105 50.355 20.4963 50.6995 19.8806H50.9662V21.1344H52.8439V21.8172H50.9662V24.7724C50.9662 25.6568 51.1106 26.1717 51.9439 26.1717C52.3106 26.1717 52.5773 26.0485 52.7328 25.9478L52.8217 26.2053ZM27.3328 21.112C27.2106 21.112 26.9661 21.112 26.7995 21.1568C26.4995 21.1568 26.1884 21.2015 25.9661 21.2015C25.555 21.2015 24.9439 21.1568 24.7661 21.1568V21.5038C24.8439 21.5038 25.1328 21.459 25.3328 21.8508C25.4106 21.9963 25.455 22.1194 25.4773 22.1978C25.5217 22.2762 25.555 22.3433 25.555 22.3881L27.3661 26.9441L27.9328 26.8209L29.9328 22.3433C29.9328 22.2986 29.9773 22.265 30.0106 22.1978C30.055 22.153 30.055 22.0747 30.1995 21.8508C30.3217 21.6269 30.5661 21.5038 30.7661 21.5038V21.1568C30.5439 21.1568 30.055 21.2015 29.6661 21.2015C29.4773 21.2015 29.2995 21.2015 29.0995 21.1568C28.955 21.1568 28.7328 21.112 28.5661 21.112V21.4142C28.755 21.4142 28.9328 21.4926 29.0106 21.5597C29.055 21.6045 29.1328 21.7053 29.1328 21.7836C29.1328 21.9068 29.0884 22.0075 28.9884 22.3545L27.8884 25.0411C27.8439 24.8956 27.7661 24.6717 27.6661 24.3583L26.9106 22.3433C26.7884 22.0411 26.7661 21.9291 26.7661 21.7724C26.7661 21.6941 26.7661 21.6269 26.8439 21.5821C26.9661 21.459 27.1439 21.3918 27.3328 21.3918V21.0896V21.112ZM15.0217 21.3359C15.3217 21.3806 15.7328 21.3359 16.1439 21.2575C16.4884 21.1791 16.6328 21.1344 16.8995 21.0336L17.0217 21.112V21.5597C17.2884 21.3359 17.8995 21.0224 18.6439 21.0224C19.6661 21.0224 20.2995 21.515 20.4995 22.3545C20.5439 22.5784 20.5773 23.0709 20.5773 23.3844V25.0187C20.5773 25.9254 20.6217 26.1941 20.7995 26.3956C20.8773 26.4739 21.0995 26.5411 21.3328 26.5411V26.8097C20.9661 26.8097 20.3106 26.765 19.9439 26.765C19.4106 26.765 18.8439 26.8097 18.555 26.8433V26.5747C18.8217 26.5299 18.9995 26.4515 19.1217 26.3844C19.2661 26.2388 19.3106 25.8918 19.3439 25.209C19.3439 24.9851 19.3439 24.5709 19.3439 24.2239C19.3439 23.8097 19.3439 23.3396 19.2995 22.9366C19.2217 22.2202 18.855 21.8732 18.1328 21.8732C17.6439 21.8732 17.2995 21.9963 17.0773 22.0971V25.0747C17.0773 25.9814 17.1217 26.25 17.2995 26.4515C17.3773 26.5299 17.5995 26.5971 17.8328 26.5971V26.8657C17.3439 26.7426 16.7773 26.7426 16.3995 26.7426C15.6439 26.7426 15.4217 26.7426 15.0106 26.8209V26.5523C15.2328 26.5523 15.4995 26.4739 15.6217 26.3284C15.7661 26.1381 15.8106 25.6456 15.8106 24.6941V23.0933C15.8106 22.4105 15.8106 22.1083 15.6884 21.9627C15.6106 21.8396 15.4217 21.7388 15.055 21.7724V21.3471H15.0217V21.3359ZM33.3328 26.8433C31.6439 26.8433 30.7217 25.8583 30.7217 24.0672C30.7217 23.765 30.7995 20.9888 33.355 20.9888C34.1106 20.9888 34.7884 21.2911 35.0884 21.8284C35.4328 22.3657 35.455 22.8918 35.455 23.3508V23.6978H31.955C31.955 24 31.9995 24.2351 32.0328 24.4142C32.2217 25.5224 32.8217 26.0486 33.8884 26.0486C34.4995 26.0486 34.8661 25.9254 35.2106 25.7015L35.355 25.9702C34.9995 26.4739 34.2439 26.8433 33.3328 26.8433ZM31.9773 23.0485H34.155C34.155 22.3657 34.0328 21.6045 33.055 21.6045C32.1995 21.6493 32.0217 22.4665 31.9773 23.0485Z" fill="#223034"/>
</svg>
