<svg width="135" height="26" viewBox="0 0 135 26" fill="none" xmlns="http://www.w3.org/2000/svg">
<g clip-path="url(#clip0_540_656)">
<path d="M16.2022 17.1157H14.0249V25.6079H16.2022V17.1157Z" fill="#223034"/>
<path d="M33.7373 19.5479C33.6445 19.5048 32.9446 19.0955 31.9078 19.0955C30.4995 19.0955 29.5254 20.0606 29.5254 21.3597C29.5254 22.6242 30.4563 23.626 31.9078 23.626C32.9295 23.626 33.6423 23.2274 33.7373 23.1757V25.4593C33.463 25.5325 32.72 25.7587 31.7545 25.7587C29.3029 25.7587 27.1602 24.0978 27.1602 21.3575C27.1602 18.8219 29.102 16.9649 31.7545 16.9649C32.7718 16.9649 33.53 17.2105 33.7373 17.2708V19.5479Z" fill="#223034"/>
<path d="M11.0377 19.5479C10.9491 19.5048 10.2515 19.0955 9.21035 19.0955C7.79987 19.0955 6.82572 20.0606 6.82572 21.3597C6.82572 22.6242 7.75451 23.626 9.21035 23.626C10.232 23.626 10.9448 23.2274 11.0377 23.1757V25.4593C10.7655 25.5325 10.0225 25.7587 9.05051 25.7587C6.6054 25.7587 4.46484 24.0978 4.46484 21.3575C4.46484 18.8219 6.40668 16.9649 9.05051 16.9649C10.0808 16.9649 10.8303 17.2105 11.0377 17.2708V19.5479Z" fill="#223034"/>
<path d="M45.1289 21.3597C45.1289 23.7897 43.2259 25.7609 40.5756 25.7609C37.9274 25.7609 36.0288 23.7919 36.0288 21.3597C36.0288 18.9361 37.9274 16.9671 40.5756 16.9671C43.2259 16.9671 45.1289 18.9361 45.1289 21.3597ZM40.5734 19.1278C39.2839 19.1278 38.3292 20.1274 38.3292 21.3597C38.3292 22.5984 39.2839 23.5958 40.5734 23.5958C41.8651 23.5958 42.8241 22.5984 42.8241 21.3597C42.8241 20.1274 41.8651 19.1278 40.5734 19.1278Z" fill="#223034"/>
<path d="M24.4469 19.046C24.4166 19.0374 23.5008 18.7875 22.7491 18.7875C21.8765 18.7875 21.4056 19.074 21.4056 19.4855C21.4056 20.0003 22.0428 20.1791 22.3992 20.2933L23.0018 20.4786C24.4123 20.9224 25.056 21.8746 25.056 22.9108C25.056 25.0435 23.1509 25.7609 21.4877 25.7609C20.3299 25.7609 19.2521 25.5498 19.1398 25.5304V23.5743C19.332 23.6217 20.2435 23.891 21.1939 23.891C22.2718 23.891 22.7729 23.5786 22.7729 23.0939C22.7729 22.6652 22.343 22.4196 21.8009 22.2516C21.6691 22.2085 21.4747 22.146 21.3365 22.1029C20.1269 21.7259 19.1182 21.0236 19.1182 19.6212C19.1182 18.0292 20.3234 16.9671 22.3322 16.9671C23.3906 16.9671 24.3864 17.217 24.449 17.2342V19.046H24.4469Z" fill="#223034"/>
<path d="M2.15567 7.99023C2.15567 7.40642 1.67184 6.93033 1.07568 6.93033C0.485999 6.93033 0 7.40642 0 7.99023V10.2178C0 10.8059 0.485999 11.2798 1.07568 11.2798C1.674 11.2798 2.15567 10.8059 2.15567 10.2178V7.99023Z" fill="#223034"/>
<path d="M8.08675 5.06254C8.08675 4.47873 7.60291 4.00479 7.01107 4.00479C6.41276 4.00479 5.92676 4.47873 5.92676 5.06254V10.2177C5.92676 10.8058 6.41276 11.2798 7.01107 11.2798C7.60507 11.2798 8.08675 10.8058 8.08675 10.2177V5.06254Z" fill="#223034"/>
<path d="M14.016 1.06206C14.016 0.473941 13.5365 0 12.9403 0C12.3464 0 11.8604 0.473941 11.8604 1.06206V12.3376C11.8604 12.9257 12.3464 13.4018 12.9403 13.4018C13.5365 13.4018 14.0182 12.9235 14.0182 12.3376V1.06206H14.016Z" fill="#223034"/>
<path d="M19.9477 5.06254C19.9477 4.47873 19.4638 4.00479 18.872 4.00479C18.2737 4.00479 17.792 4.47873 17.792 5.06254V10.2177C17.792 10.8058 18.2758 11.2798 18.872 11.2798C19.4638 11.2798 19.9477 10.8058 19.9477 10.2177V5.06254Z" fill="#223034"/>
<path d="M25.8728 7.99023C25.8728 7.40642 25.3932 6.93033 24.7992 6.93033C24.2052 6.93033 23.7192 7.40642 23.7192 7.99023V10.2178C23.7192 10.8059 24.2052 11.2798 24.7992 11.2798C25.3932 11.2798 25.8728 10.8059 25.8728 10.2178V7.99023Z" fill="#223034"/>
<path d="M31.8059 5.06254C31.8059 4.47873 31.3242 4.00479 30.728 4.00479C30.134 4.00479 29.6523 4.47873 29.6523 5.06254V10.2177C29.6523 10.8058 30.134 11.2798 30.728 11.2798C31.3242 11.2798 31.8059 10.8058 31.8059 10.2177V5.06254Z" fill="#223034"/>
<path d="M37.7394 1.06206C37.7394 0.473941 37.2599 0 36.6616 0C36.0719 0 35.5859 0.473941 35.5859 1.06206V12.3376C35.5859 12.9257 36.0719 13.4018 36.6616 13.4018C37.2621 13.4018 37.7394 12.9235 37.7394 12.3376V1.06206Z" fill="#223034"/>
<path d="M43.675 5.06254C43.675 4.47873 43.189 4.00479 42.582 4.00479C41.9923 4.00479 41.5063 4.47873 41.5063 5.06254V10.2177C41.5063 10.8058 41.9923 11.2798 42.582 11.2798C43.1912 11.2798 43.675 10.8058 43.675 10.2177V5.06254Z" fill="#223034"/>
<path d="M49.5956 7.99023C49.5956 7.40642 49.1096 6.93033 48.5156 6.93033C47.9195 6.93033 47.4399 7.40642 47.4399 7.99023V10.2178C47.4399 10.8059 47.9195 11.2798 48.5156 11.2798C49.1096 11.2798 49.5956 10.8059 49.5956 10.2178V7.99023Z" fill="#223034"/>
<path d="M72.161 25.6208L65.0006 8.37584V25.6208H64.0762V7.41287H65.5666L72.7529 24.7354L79.5525 7.41287H80.9868V25.6208H80.0644V8.50078L73.3123 25.6208H72.161Z" fill="#223034"/>
<path d="M85.3352 18.4902H95.2928C95.1092 14.7482 92.9838 12.8503 90.314 12.8503C87.6702 12.8503 85.5145 14.8236 85.3352 18.4902ZM96.0099 22.1309C95.3684 24.5071 93.3143 25.9979 90.6207 25.9979C87.0805 25.9979 84.3892 23.4946 84.3892 19.0439C84.3892 14.5694 87.0028 12.0898 90.314 12.0898C93.6231 12.0898 96.267 14.4165 96.267 19.2722H85.3352C85.4368 23.3416 87.7717 25.2137 90.6488 25.2137C92.8023 25.2137 94.4958 24.1021 95.0358 22.1288H96.0099V22.1309Z" fill="#223034"/>
<path d="M99.7295 25.6209V12.4712H100.473L100.624 15.2545C101.319 13.0507 102.782 12.0898 104.527 12.0898C105.017 12.0898 105.553 12.1932 105.864 12.2945V13.1778C105.425 13.0507 104.963 12.9472 104.451 12.9472C102.397 12.9472 100.652 15.0714 100.652 18.1843V25.6187H99.7295V25.6209Z" fill="#223034"/>
<path d="M116.744 18.236L113.048 18.8456C109.506 19.423 108.48 20.5131 108.48 22.258C108.48 24.2572 110.046 25.218 112.201 25.218C114.433 25.218 116.746 23.5226 116.746 20.9956V18.236H116.744ZM107.966 15.7607C108.171 13.5827 110.149 12.092 112.921 12.092C115.692 12.092 117.666 13.6624 117.666 16.3165V25.623H116.921L116.77 23.2705C115.973 24.7117 114.407 26.0022 111.944 26.0022C109.48 26.0022 107.529 24.7117 107.529 22.3119C107.529 20.1124 108.892 18.7681 112.69 18.1369L116.744 17.482V16.1399C116.744 14.1407 115.279 12.8524 112.867 12.8524C110.633 12.8524 109.069 14.0653 108.89 15.7607H107.966Z" fill="#223034"/>
<path d="M121.642 25.6208V7.41287H122.567V17.9322L129.444 12.4711H130.727L123.515 18.2101L131.623 25.6208H130.368L122.567 18.5397V25.6208H121.642Z" fill="#223034"/>
<path d="M133.65 12.4711H134.574V25.6208H133.65V12.4711ZM133.522 7.41287H134.702V8.85624H133.522V7.41287Z" fill="#223034"/>
</g>
<defs>
<clipPath id="clip0_540_656">
<rect width="135" height="26" fill="white"/>
</clipPath>
</defs>
</svg>
