<svg width="88" height="30" viewBox="0 0 88 30" fill="none" xmlns="http://www.w3.org/2000/svg">
<g clip-path="url(#clip0_540_685)">
<path d="M29.6403 29.4658H28.7285L28.5578 29.9508H28.0049L28.8934 27.5632H29.5026L30.3815 29.9508H29.8091L29.6403 29.4658ZM28.9012 28.9809H29.4735L29.1903 28.1562L28.9012 28.9809Z" fill="#223034"/>
<path d="M33.2141 29.9508L32.2421 28.382V29.9508H31.7202V27.5632H32.3585L33.2432 29.0142V27.5632H33.7689V29.9508H33.2141Z" fill="#223034"/>
<path d="M35.5747 27.5122C36.2363 27.5122 36.7989 28.0011 36.7989 28.759C36.7989 29.513 36.2363 30.0019 35.5747 30.0019C34.9093 30.0019 34.3467 29.513 34.3467 28.759C34.3467 28.0011 34.9093 27.5122 35.5747 27.5122ZM35.5747 29.4757C35.9007 29.4757 36.2538 29.2538 36.2538 28.7551C36.2538 28.2564 35.9007 28.0306 35.5747 28.0306C35.2449 28.0306 34.8918 28.2564 34.8918 28.7551C34.8938 29.2538 35.2449 29.4757 35.5747 29.4757Z" fill="#223034"/>
<path d="M38.8732 29.9508L37.9013 28.382V29.9508H37.3794V27.5632H38.0177L38.9023 29.0142V27.5632H39.4281V29.9508H38.8732Z" fill="#223034"/>
<path d="M40.6698 29.0928V29.9508H40.144V27.5632H41.0326C41.5118 27.5632 41.8416 27.8833 41.8416 28.327C41.8416 28.7786 41.5118 29.0908 41.0326 29.0908H40.6698V29.0928ZM40.9783 28.6333C41.1781 28.6333 41.3139 28.5155 41.3139 28.3309C41.3139 28.1385 41.1781 28.0246 40.9783 28.0246H40.6717V28.6333H40.9783Z" fill="#223034"/>
<path d="M43.0772 29.0614H42.891V29.9508H42.3652V27.5632H43.3003C43.766 27.5632 44.0647 27.8872 44.0647 28.3113C44.0647 28.6353 43.8882 28.8807 43.5991 28.9848L44.0783 29.9508H43.5002L43.0772 29.0614ZM43.2014 28.6039C43.4187 28.6039 43.5331 28.4821 43.5331 28.3152C43.5331 28.1366 43.4167 28.0246 43.2014 28.0246H42.8929V28.6039H43.2014Z" fill="#223034"/>
<path d="M45.7334 27.5122C46.395 27.5122 46.9576 28.0011 46.9576 28.759C46.9576 29.513 46.395 30.0019 45.7334 30.0019C45.068 30.0019 44.5054 29.513 44.5054 28.759C44.5054 28.0011 45.068 27.5122 45.7334 27.5122ZM45.7334 29.4757C46.0594 29.4757 46.4124 29.2538 46.4124 28.7551C46.4124 28.2564 46.0594 28.0306 45.7334 28.0306C45.4036 28.0306 45.0505 28.2564 45.0505 28.7551C45.0505 29.2538 45.4036 29.4757 45.7334 29.4757Z" fill="#223034"/>
<path d="M47.5356 29.9508V27.5632H49.0566V28.0678H48.0614V28.5725H48.9364V29.0574H48.0653V29.9489H47.5356V29.9508Z" fill="#223034"/>
<path d="M49.6245 29.9508V27.5632H50.1561V29.9508H49.6245Z" fill="#223034"/>
<path d="M51.9139 28.0718V29.9508H51.3882V28.0718H50.6626V27.5632H52.6414V28.0718H51.9139Z" fill="#223034"/>
<path d="M53.8818 28.761C53.8818 28.0168 54.4406 27.5122 55.1002 27.5122C55.8083 27.5122 56.1207 27.9736 56.1983 28.3172L55.7035 28.4763C55.6667 28.3113 55.5173 28.0325 55.1021 28.0325C54.7859 28.0325 54.4309 28.2623 54.4309 28.7629C54.4309 29.2106 54.7568 29.4698 55.1099 29.4698C55.5192 29.4698 55.6822 29.1929 55.7288 29.0221L56.2312 29.1674C56.1556 29.4973 55.8413 30.0019 55.1099 30.0019C54.427 29.9999 53.8818 29.5051 53.8818 28.761Z" fill="#223034"/>
<path d="M58.2133 29.9508V29.0005H57.2723V29.9508H56.7466V27.5632H57.2723V28.4998H58.2133V27.5632H58.7429V29.9508H58.2133Z" fill="#223034"/>
<path d="M60.8484 29.4658H59.9365L59.7658 29.9508H59.2129L60.1014 27.5632H60.7106L61.5895 29.9508H61.0171L60.8484 29.4658ZM60.1092 28.9809H60.6815L60.3983 28.1562L60.1092 28.9809Z" fill="#223034"/>
<path d="M63.5603 29.9508L62.5883 28.382V29.9508H62.0664V27.5632H62.7047L63.5894 29.0142V27.5632H64.1151V29.9508H63.5603Z" fill="#223034"/>
<path d="M66.5849 29.9508L66.5519 29.7074C66.4491 29.8586 66.226 29.9999 65.8904 29.9999C65.2346 29.9999 64.6953 29.511 64.6953 28.7571C64.6953 28.005 65.2579 27.5103 65.9234 27.5103C66.5985 27.5103 66.9109 27.9147 67.0156 28.2485L66.5093 28.4272C66.4724 28.2799 66.3153 28.009 65.9234 28.009C65.6033 28.009 65.2288 28.225 65.2288 28.7571C65.2288 29.2558 65.5548 29.515 65.9369 29.515C66.3269 29.515 66.4899 29.2597 66.519 29.1242H65.8108V28.6726H67.0117V29.9489H66.5849V29.9508Z" fill="#223034"/>
<path d="M67.6382 29.9508V27.5632H68.1697V29.9508H67.6382Z" fill="#223034"/>
<path d="M70.3815 29.9508L69.4096 28.382V29.9508H68.8877V27.5632H69.526L70.4106 29.0142V27.5632H70.9364V29.9508H70.3815Z" fill="#223034"/>
<path d="M73.4062 29.9508L73.3732 29.7074C73.2704 29.8586 73.0473 29.9999 72.7117 29.9999C72.0559 29.9999 71.5166 29.511 71.5166 28.7571C71.5166 28.005 72.0792 27.5103 72.7447 27.5103C73.4198 27.5103 73.7322 27.9147 73.8369 28.2485L73.3306 28.4272C73.2937 28.2799 73.1366 28.009 72.7447 28.009C72.4245 28.009 72.0501 28.225 72.0501 28.7571C72.0501 29.2558 72.376 29.515 72.7582 29.515C73.1482 29.515 73.3112 29.2597 73.3403 29.1242H72.6321V28.6726H73.833V29.9489H73.4062V29.9508Z" fill="#223034"/>
<path d="M75.4141 29.9508V27.5632H75.9398V29.4423H76.9583V29.9508H75.4141Z" fill="#223034"/>
<path d="M77.4609 29.9508V27.5632H77.9925V29.9508H77.4609Z" fill="#223034"/>
<path d="M80.1789 27.5632H80.7377L79.8763 29.9508H79.335L78.4697 27.5632H79.0479L79.6163 29.244L80.1789 27.5632Z" fill="#223034"/>
<path d="M81.2168 29.9508V27.5632H82.7106V28.0659H81.7426V28.5214H82.6214V28.9887H81.7426V29.4462H82.7145V29.9508H81.2168Z" fill="#223034"/>
<path d="M84.4955 28.2839C84.4781 28.1719 84.3888 27.9835 84.1036 27.9835C83.9077 27.9835 83.7816 28.1071 83.7816 28.2387C83.7816 28.3526 83.8514 28.437 84.0144 28.4684L84.3306 28.5293C84.7807 28.6137 85.0135 28.9063 85.0135 29.246C85.0135 29.619 84.7051 29.9999 84.1424 29.9999C83.4906 29.9999 83.2112 29.5719 83.1782 29.2361L83.6613 29.1183C83.6807 29.3382 83.8281 29.5287 84.1502 29.5287C84.3558 29.5287 84.482 29.4286 84.482 29.2793C84.482 29.1576 84.3849 29.0712 84.2297 29.0398L83.9077 28.9789C83.508 28.9024 83.2655 28.6314 83.2655 28.278C83.2655 27.8264 83.6574 27.5103 84.1114 27.5103C84.7012 27.5103 84.9223 27.8676 84.9728 28.1464L84.4955 28.2839Z" fill="#223034"/>
<path d="M16.7931 18.3467C16.6029 17.8166 16.504 17.2609 16.504 16.6954C16.504 15.9748 16.7795 15.2307 17.0142 14.73C17.0239 14.7064 17.2684 14.1429 17.6583 13.5912C17.9784 13.1376 18.4693 12.5977 18.9912 12.5957C19.6547 12.5957 19.9728 13.1474 20.2541 13.6344C20.5374 14.1331 20.7818 14.5631 21.2921 14.5631C21.5578 14.5631 21.8314 14.3432 22.0545 13.9603C22.1748 13.5303 22.2407 13.1101 22.2407 12.7056C22.2407 12.1127 22.1476 11.5413 21.973 11.0013C21.9497 10.9739 21.9303 10.9444 21.9051 10.9169C21.488 10.4594 20.8633 10.2375 19.9845 10.2375C17.4488 10.2415 16.376 12.0145 16.3682 12.0282L16.2305 12.2658L15.9938 12.1323C15.986 12.1264 15.0878 11.6336 13.6075 11.6336C12.2029 11.6355 11.3279 12.0852 11.2309 12.1382L10.9923 12.2678L10.8507 12.0263C10.8061 11.9536 9.74097 10.2375 7.2286 10.2375C6.37691 10.2395 5.73281 10.4751 5.31182 10.9405C4.86949 11.4255 4.77637 12.0459 4.77637 12.4779C4.77831 13.4459 5.26332 14.3982 5.7949 14.5435V14.5631H6.07232V14.5493C6.35363 14.5022 6.53018 14.3098 6.66598 14.1193C6.78432 13.8955 6.91237 13.6815 7.04235 13.491C7.3159 13.01 7.63601 12.5505 8.22579 12.5505H8.32085C8.32861 12.5505 8.33443 12.5525 8.34219 12.5525L8.36353 12.5486L8.37711 12.5545C8.83108 12.6153 9.42862 13.3614 9.81663 14.0074C10.0902 14.4571 10.7246 15.6175 10.7265 16.7033C10.7265 17.2688 10.6315 17.8264 10.4413 18.3565L10.4277 18.386L10.063 19.1655C10.0087 19.2637 9.70605 19.8507 9.70217 20.5831V20.591V20.5988C9.79723 21.5629 10.5927 22.2874 11.551 22.2874H11.553C12.3232 22.2874 12.9867 21.8064 13.266 21.127V19.7545C12.6045 19.5955 12.1137 19.0006 12.1137 18.2878C12.1137 18.2878 12.7345 17.9756 13.6075 17.9756C14.4922 17.9756 15.1091 18.2878 15.1091 18.2878C15.1091 19.0025 14.6202 19.5955 13.9586 19.7565H13.9392V21.0544C14.1856 21.7259 14.7948 22.2187 15.5262 22.2815C16.182 21.7023 16.859 21.074 17.5206 20.4143C17.476 19.7172 17.1791 19.1832 17.1384 19.1125L16.7931 18.3467ZM12.0458 17.3414C11.7218 17.3414 11.4599 17.0744 11.4599 16.7426C11.4599 16.4166 11.7198 16.1476 12.0438 16.1457C12.3697 16.1457 12.6355 16.4147 12.6355 16.7406C12.6375 17.0724 12.3717 17.3414 12.0458 17.3414ZM15.1886 17.3434C14.8647 17.3434 14.5989 17.0763 14.5969 16.7445C14.5969 16.4186 14.8608 16.1496 15.1867 16.1476C15.5088 16.1476 15.7745 16.4166 15.7745 16.7426C15.7745 17.0744 15.5107 17.3414 15.1886 17.3434Z" fill="#223034"/>
<path d="M13.5783 23.8445C12.9536 23.8445 12.4666 23.5637 12.2105 23.0552C12.1834 23.0022 12.162 22.9491 12.1407 22.8981C11.9545 22.9433 11.7585 22.9668 11.5587 22.9668C10.253 22.9668 9.16853 21.9772 9.04049 20.6656V20.6578L9.03661 20.6205V20.5832V20.5773C9.03661 20.5321 9.03855 20.4889 9.04049 20.4457C8.43519 21.0053 7.71155 21.4078 6.94717 21.5963C6.65422 21.669 6.35739 21.7082 6.0625 21.718C8.66606 24.0939 11.1222 25.8139 11.1222 25.8139C11.1222 25.8139 12.2067 25.0501 13.6986 23.8366C13.6578 23.8406 13.619 23.8445 13.5783 23.8445Z" fill="#223034"/>
<path d="M13.6251 21.8849C13.402 22.205 13.1071 22.4681 12.7656 22.6566C12.8587 22.8981 13.076 23.1632 13.5785 23.1632C14.112 23.1632 14.3235 22.8647 14.4069 22.6134C14.1004 22.4288 13.8327 22.1814 13.6251 21.8849Z" fill="#223034"/>
<path d="M21.2921 15.2424C20.3938 15.2424 19.9748 14.5101 19.6702 13.974C19.3714 13.4576 19.224 13.275 18.9892 13.275C18.8903 13.275 18.6012 13.4242 18.2035 13.9858C17.8563 14.4767 17.637 14.9813 17.6293 15.0009L17.6254 15.0107L17.6215 15.0206C17.4178 15.4565 17.1753 16.1024 17.1753 16.6934C17.1772 17.1706 17.2568 17.6398 17.4139 18.0875L17.7418 18.7983C17.8175 18.9318 18.0076 19.3049 18.1182 19.8114C19.5363 18.3329 20.8187 16.7366 21.5637 15.2091C21.4628 15.2346 21.3697 15.2424 21.2921 15.2424Z" fill="#223034"/>
<path d="M1.9808 14.1822C2.10302 13.9701 2.7413 12.9 3.29421 12.635L3.47464 12.5486L3.67252 12.5761C3.82385 12.5976 3.97129 12.6566 4.1168 12.7547C4.10904 12.6605 4.10516 12.5682 4.10516 12.4759C4.10516 11.9202 4.22738 11.1231 4.81716 10.4771C5.37007 9.86449 6.18296 9.55426 7.23059 9.55229C8.40626 9.55229 9.49075 9.89787 10.3677 10.5517C10.777 10.858 11.0583 11.1682 11.231 11.3862C11.6636 11.2095 12.4862 10.9503 13.6095 10.9483C14.7308 10.9483 15.5631 11.2075 15.9977 11.3842C16.1665 11.1722 16.4361 10.8757 16.8261 10.5792C17.9416 9.73097 19.16 9.55229 19.9865 9.55033C20.5335 9.55033 21.0069 9.62691 21.4124 9.78202C20.3648 8.08165 18.4325 6.9389 16.2208 6.9389C14.0712 6.9389 12.1874 8.13859 11.1223 9.75846C10.0572 8.13859 8.17151 6.9389 6.02387 6.9389C2.69668 6.94283 0 9.52088 0 12.7037C0 13.7973 0.469493 14.9951 1.21447 16.2085C1.33088 15.4447 1.67815 14.7064 1.9808 14.1822Z" fill="#223034"/>
<path d="M8.56558 18.5254L9.52591 18.7237C9.64425 18.4979 9.74319 18.2643 9.81886 18.0267L8.55394 18.2309C8.54036 18.2329 8.52872 18.2348 8.51514 18.2348C8.39874 18.2348 8.29591 18.1504 8.27845 18.0306C8.25711 17.8971 8.34635 17.7734 8.47828 17.7518L9.94496 17.5162C9.97988 17.314 9.99928 17.1098 9.99928 16.9075C9.99928 16.8781 9.99734 16.8486 9.99734 16.8172C9.99928 16.7799 9.99928 16.7406 9.99928 16.7033C9.99734 15.3073 8.67034 13.4498 8.26293 13.2535C8.12519 13.2731 7.95058 13.4243 7.77016 13.6501C7.71778 13.7149 7.66539 13.7875 7.61495 13.8622L7.60719 13.8739L7.59943 13.8857L7.59361 13.8955L7.58779 13.9054L7.58003 13.9152C7.48109 14.0624 7.38215 14.2274 7.28902 14.406L7.28514 14.4139L7.26574 14.4492L7.24246 14.4826L7.24052 14.4865C7.1377 14.6868 7.0407 14.893 6.96115 15.0952L6.81953 15.4604L6.45092 15.3446C6.28213 15.2916 6.10171 15.2641 5.92322 15.2641C5.7428 15.266 5.56431 15.2916 5.39553 15.3446L5.02692 15.4604L4.88529 15.0952C4.67965 14.5729 4.36924 14.0133 4.07629 13.6501C3.89393 13.4243 3.72126 13.2731 3.58352 13.2535C3.17611 13.4479 1.84911 15.3073 1.84717 16.7033C1.84717 16.7406 1.84911 16.7779 1.84911 16.8152C1.84911 16.8447 1.84717 16.8761 1.84717 16.9055C1.84717 16.9919 1.85105 17.0783 1.85881 17.1647C1.94417 17.2825 2.02953 17.3984 2.11878 17.5162L3.57188 17.7498C3.7038 17.7714 3.79304 17.8951 3.7717 18.0287C3.7523 18.1484 3.65142 18.2329 3.53502 18.2329C3.52338 18.2329 3.5098 18.2309 3.49622 18.2289L2.56111 18.0777C2.70855 18.2604 2.85988 18.441 3.01508 18.6216L3.48457 18.5254C3.61456 18.4979 3.7426 18.5843 3.76782 18.7159C3.79498 18.8474 3.70962 18.977 3.57964 19.0025L3.38369 19.0438C3.98511 19.7133 4.62533 20.3652 5.27137 20.9837C5.48283 21.023 5.70012 21.0446 5.92128 21.0446C6.21811 21.0446 6.50718 21.0073 6.78655 20.9385C7.80314 20.6872 8.68004 20.0157 9.25818 19.1675L8.46858 19.0045C8.33859 18.977 8.25517 18.8494 8.28039 18.7178C8.30949 18.5824 8.4356 18.4979 8.56558 18.5254ZM3.84931 16.7445C3.84931 16.4186 4.11315 16.1496 4.44102 16.1476C4.76113 16.1476 5.02498 16.4147 5.02692 16.7426C5.02692 17.0724 4.76307 17.3414 4.44296 17.3414C4.11509 17.3414 3.84931 17.0744 3.84931 16.7445ZM7.49855 19.3167C7.30648 19.5072 7.05234 19.6132 6.78073 19.6132H6.77879C6.47032 19.6132 6.19871 19.4718 6.01247 19.2539C5.82622 19.4718 5.54879 19.6132 5.23838 19.6132H5.23644C4.96484 19.6132 4.71263 19.5052 4.52444 19.3167C4.33432 19.1223 4.22956 18.8631 4.22956 18.5883C4.22956 18.4528 4.3382 18.3448 4.47012 18.3448C4.60205 18.3448 4.71069 18.4547 4.71069 18.5883C4.71069 18.7316 4.76501 18.8651 4.86395 18.9652C4.9629 19.0654 5.09676 19.1223 5.23644 19.1223H5.23838C5.52939 19.1223 5.76608 18.8828 5.76608 18.5863V18.3762C5.76608 18.3625 5.7719 18.3487 5.77384 18.335C5.46343 18.2329 5.23838 17.9423 5.23838 17.5987C5.23838 17.5987 5.56431 17.4396 6.01441 17.4396C6.45092 17.4396 6.78073 17.5987 6.78073 17.5987C6.78073 17.9423 6.55568 18.2348 6.25109 18.335C6.25303 18.3487 6.25885 18.3625 6.25885 18.3762V18.5863C6.25885 18.8808 6.48972 19.1223 6.78073 19.1223C6.92235 19.1223 7.05428 19.0673 7.15322 18.9652C7.2541 18.8651 7.30842 18.7296 7.30842 18.5883H7.31424C7.31424 18.4528 7.42289 18.3448 7.55481 18.3448C7.68673 18.3448 7.79538 18.4547 7.79538 18.5883C7.79732 18.8631 7.69256 19.1223 7.49855 19.3167ZM7.58003 17.3414C7.25216 17.3414 6.98637 17.0744 6.98637 16.7426C6.98637 16.4147 7.25022 16.1476 7.57809 16.1476C7.90402 16.1476 8.16593 16.4147 8.16593 16.7426C8.16593 17.0724 7.9079 17.3414 7.58003 17.3414Z" fill="#223034"/>
<path d="M27.8149 25.0736V1.33322H32.1238V25.0736H27.8149Z" fill="#223034"/>
<path d="M51.6271 17.0077C51.6271 21.9596 48.0302 25.5665 43.2674 25.5665C38.5046 25.5665 34.9077 21.9596 34.9077 17.0077C34.9077 12.0244 38.5046 8.44888 43.2674 8.44888C48.0322 8.44888 51.6271 12.0224 51.6271 17.0077ZM47.3182 17.0077C47.3182 13.9584 45.3743 12.4171 43.2674 12.4171C41.1605 12.4171 39.2166 13.9584 39.2166 17.0077C39.2166 20.0256 41.1605 21.5983 43.2674 21.5983C45.3743 21.5983 47.3182 20.057 47.3182 17.0077Z" fill="#223034"/>
<path d="M62.8382 25.0737H58.5294L52.0166 8.93976H56.7465L60.7003 19.7605L64.4912 8.93976H69.027L62.8382 25.0737Z" fill="#223034"/>
<path d="M85.0641 20.4497C84.2551 23.2378 81.7272 25.5645 77.8064 25.5645C73.4315 25.5645 69.5767 22.3837 69.5767 16.9409C69.5767 11.7927 73.3345 8.44888 77.4184 8.44888C82.3442 8.44888 85.2911 11.6297 85.2911 16.8113C85.2911 17.4338 85.2271 18.0896 85.2271 18.1563H73.8215C73.9185 20.2887 75.7014 21.828 77.8394 21.828C79.8473 21.828 80.9493 20.811 81.4673 19.3678L85.0641 20.4497ZM81.0463 15.1699C80.9822 13.5637 79.9443 11.989 77.4824 11.989C75.2474 11.989 74.0155 13.6933 73.9185 15.1699H81.0463Z" fill="#223034"/>
<path d="M45.8381 4.21559V2.22266H46.7188V1.31357H45.8381V0H44.9224V0.644021C44.9224 1.02297 44.7225 1.31357 44.2686 1.31357H44.0513V2.22266H44.8351V4.38445C44.8351 5.18751 45.3239 5.66267 46.1077 5.66267C46.4744 5.66267 46.6645 5.59199 46.7266 5.56646V4.7202C46.6839 4.72806 46.5171 4.75555 46.3774 4.75555C46.0049 4.75358 45.8381 4.59454 45.8381 4.21559Z" fill="#223034"/>
<path d="M35.4957 7.2845C35.9206 7.2845 36.1223 7.02924 36.1476 6.68564V5.12467C36.3648 5.45061 36.8266 5.71568 37.4377 5.71568C38.658 5.71568 39.434 4.74572 39.434 3.45768C39.434 2.18731 38.7278 1.21735 37.4726 1.21735C36.8188 1.21735 36.3319 1.52561 36.1223 1.89671V1.31356H35.1465V7.2845H35.4957ZM37.2805 4.80659C36.619 4.80659 36.1398 4.27645 36.1398 3.45768C36.1398 2.65461 36.619 2.12644 37.2805 2.12644C37.9596 2.12644 38.4213 2.65658 38.4213 3.45768C38.4213 4.27841 37.9518 4.80659 37.2805 4.80659Z" fill="#223034"/>
<path d="M53.6161 1.18201C52.3531 1.18201 51.4199 2.14411 51.4199 3.45768C51.4199 4.78106 52.3531 5.74121 53.6161 5.74121C54.8887 5.74121 55.82 4.7791 55.82 3.45768C55.82 2.14411 54.8887 1.18201 53.6161 1.18201ZM53.6161 4.82426C52.9972 4.82426 52.4307 4.34714 52.4307 3.45768C52.4307 2.56626 52.9972 2.10877 53.6161 2.10877C54.2427 2.10877 54.8014 2.56822 54.8014 3.45768C54.8014 4.35695 54.2427 4.82426 53.6161 4.82426Z" fill="#223034"/>
<path d="M43.9057 3.41252C43.9057 2.05379 43.1394 1.18201 41.8318 1.18201C40.7589 1.18201 39.7656 2.08128 39.7656 3.44001C39.7656 4.89495 40.7861 5.74121 41.9346 5.74121C42.9551 5.74121 43.6244 5.13253 43.8514 4.38248L43.8824 4.26074H42.9376C42.7766 4.60828 42.4681 4.85764 41.9346 4.85764C41.308 4.85764 40.8016 4.39033 40.7764 3.73846H43.8785C43.8882 3.72275 43.9057 3.58138 43.9057 3.41252ZM40.8036 2.99037C40.8385 2.53092 41.2051 2.03808 41.8415 2.03808C42.538 2.03808 42.8697 2.48772 42.8872 2.99037H40.8036Z" fill="#223034"/>
<path d="M51.1168 4.01334H50.1875C50.0924 4.33928 49.7859 4.80659 49.1244 4.80659C48.488 4.80659 47.939 4.32161 47.939 3.45768C47.939 2.59375 48.488 2.12644 49.1069 2.12644C49.751 2.12644 50.0401 2.55055 50.1351 2.9295L50.139 2.92754L50.1351 2.9295H51.0838C51.1226 2.9295 51.0528 2.64284 51.0411 2.59375C51.0411 2.59375 51.0411 2.59375 51.0411 2.59179C51.0411 2.58786 51.0392 2.58589 51.0392 2.58589C50.8626 1.90064 50.236 1.18201 49.0991 1.18201C47.8789 1.18201 46.9302 2.13429 46.9302 3.45768C46.9302 4.76339 47.8808 5.74121 49.1263 5.74121C50.2418 5.74121 50.8782 5.00883 51.078 4.33928C51.076 4.33928 51.1575 4.01334 51.1168 4.01334Z" fill="#223034"/>
<path d="M55.7711 5.33084C55.8798 5.33084 55.969 5.42116 55.969 5.53112C55.969 5.64107 55.8798 5.73139 55.7711 5.73139C55.6625 5.73139 55.5752 5.64107 55.5752 5.53112C55.5752 5.42116 55.6625 5.33084 55.7711 5.33084ZM55.7711 5.69016C55.8565 5.69016 55.9225 5.62144 55.9225 5.53112C55.9225 5.4408 55.8546 5.37207 55.7711 5.37207C55.6858 5.37207 55.6198 5.4408 55.6198 5.53112C55.6179 5.62144 55.6858 5.69016 55.7711 5.69016ZM55.7634 5.56057H55.7479V5.63911H55.7013V5.42116H55.7808C55.8235 5.42116 55.8546 5.45258 55.8546 5.48988C55.8546 5.51933 55.8371 5.5429 55.8099 5.55468L55.8546 5.63911H55.8022L55.7634 5.56057ZM55.775 5.5213C55.7964 5.5213 55.808 5.50952 55.808 5.49185C55.808 5.47221 55.7964 5.46239 55.775 5.46239H55.7479V5.52326H55.775V5.5213Z" fill="#223034"/>
<path d="M85.4731 23.5853V24.3923H85.1763V23.5853H84.8853V23.3163H85.7602V23.5853H85.4731ZM86.8893 24.3923V23.7385L86.6507 24.3923H86.4295L86.187 23.7502V24.3923H85.898V23.3183H86.3112L86.544 23.8897L86.7652 23.3183H87.1784V24.3923H86.8893Z" fill="#223034"/>
</g>
<defs>
<clipPath id="clip0_540_685">
<rect width="88" height="30" fill="white"/>
</clipPath>
</defs>
</svg>
