<svg width="143" height="21" viewBox="0 0 143 21" fill="none" xmlns="http://www.w3.org/2000/svg">
<path d="M0.215508 20V1.28H8.11951C8.30151 1.28 8.54418 1.28867 8.84751 1.306C9.15951 1.31467 9.43684 1.34067 9.67951 1.384C10.7975 1.55733 11.7118 1.92567 12.4225 2.489C13.1418 3.05233 13.6705 3.763 14.0085 4.621C14.3465 5.47033 14.5155 6.41933 14.5155 7.468C14.5155 9.03667 14.1255 10.38 13.3455 11.498C12.5655 12.6073 11.3435 13.292 9.67951 13.552L8.11951 13.656H3.75151V20H0.215508ZM10.7715 20L7.07951 12.382L10.7195 11.68L14.7755 20H10.7715ZM3.75151 10.354H7.96351C8.14551 10.354 8.34484 10.3453 8.56151 10.328C8.77818 10.3107 8.97751 10.276 9.15951 10.224C9.63617 10.094 10.0045 9.87733 10.2645 9.574C10.5245 9.262 10.7022 8.91967 10.7975 8.547C10.9015 8.16567 10.9535 7.806 10.9535 7.468C10.9535 7.13 10.9015 6.77467 10.7975 6.402C10.7022 6.02067 10.5245 5.67833 10.2645 5.375C10.0045 5.063 9.63617 4.842 9.15951 4.712C8.97751 4.66 8.77818 4.62533 8.56151 4.608C8.34484 4.59067 8.14551 4.582 7.96351 4.582H3.75151V10.354ZM21.5335 20.39C20.5281 20.39 19.6745 20.1993 18.9725 19.818C18.2791 19.428 17.7505 18.9123 17.3865 18.271C17.0311 17.621 16.8535 16.906 16.8535 16.126C16.8535 15.476 16.9531 14.8823 17.1525 14.345C17.3518 13.8077 17.6725 13.3353 18.1145 12.928C18.5651 12.512 19.1675 12.1653 19.9215 11.888C20.4415 11.6973 21.0611 11.5283 21.7805 11.381C22.4998 11.2337 23.3145 11.095 24.2245 10.965C25.1345 10.8263 26.1355 10.6747 27.2275 10.51L25.9535 11.212C25.9535 10.38 25.7541 9.769 25.3555 9.379C24.9568 8.989 24.2895 8.794 23.3535 8.794C22.8335 8.794 22.2918 8.91967 21.7285 9.171C21.1651 9.42233 20.7708 9.86867 20.5455 10.51L17.3475 9.496C17.7028 8.33467 18.3701 7.39 19.3495 6.662C20.3288 5.934 21.6635 5.57 23.3535 5.57C24.5928 5.57 25.6935 5.76067 26.6555 6.142C27.6175 6.52333 28.3455 7.182 28.8395 8.118C29.1168 8.638 29.2815 9.158 29.3335 9.678C29.3855 10.198 29.4115 10.7787 29.4115 11.42V20H26.3175V17.114L26.7595 17.712C26.0748 18.6567 25.3338 19.3413 24.5365 19.766C23.7478 20.182 22.7468 20.39 21.5335 20.39ZM22.2875 17.608C22.9375 17.608 23.4835 17.4953 23.9255 17.27C24.3761 17.036 24.7315 16.7717 24.9915 16.477C25.2601 16.1823 25.4421 15.9353 25.5375 15.736C25.7195 15.3547 25.8235 14.9127 25.8495 14.41C25.8841 13.8987 25.9015 13.474 25.9015 13.136L26.9415 13.396C25.8928 13.5693 25.0435 13.7167 24.3935 13.838C23.7435 13.9507 23.2191 14.0547 22.8205 14.15C22.4218 14.2453 22.0708 14.3493 21.7675 14.462C21.4208 14.6007 21.1391 14.7523 20.9225 14.917C20.7145 15.073 20.5585 15.2463 20.4545 15.437C20.3591 15.6277 20.3115 15.84 20.3115 16.074C20.3115 16.3947 20.3895 16.672 20.5455 16.906C20.7101 17.1313 20.9398 17.3047 21.2345 17.426C21.5291 17.5473 21.8801 17.608 22.2875 17.608ZM33.0517 20V0.89H36.5877V20H33.0517ZM40.745 4.01V0.89H44.281V4.01H40.745ZM40.745 20V5.96H44.281V20H40.745ZM53.4044 20.416C52.3037 20.416 51.4067 20.2297 50.7134 19.857C50.0201 19.4843 49.4784 19.012 49.0884 18.44C48.7071 17.868 48.4341 17.2743 48.2694 16.659C48.1047 16.035 48.0051 15.4673 47.9704 14.956C47.9357 14.4447 47.9184 14.072 47.9184 13.838V5.96H51.5064V12.59C51.5064 12.9107 51.5237 13.3223 51.5584 13.825C51.5931 14.319 51.7014 14.8173 51.8834 15.32C52.0654 15.8227 52.3601 16.243 52.7674 16.581C53.1834 16.919 53.7684 17.088 54.5224 17.088C54.8257 17.088 55.1507 17.0403 55.4974 16.945C55.8441 16.8497 56.1691 16.6677 56.4724 16.399C56.7757 16.1217 57.0227 15.7187 57.2134 15.19C57.4127 14.6527 57.5124 13.9507 57.5124 13.084L59.5404 14.046C59.5404 15.1553 59.3151 16.1953 58.8644 17.166C58.4137 18.1367 57.7334 18.921 56.8234 19.519C55.9221 20.117 54.7824 20.416 53.4044 20.416ZM57.9544 20V15.346H57.5124V5.96H61.0744V20H57.9544ZM70.1937 20.39C68.4257 20.39 66.9957 19.9913 65.9037 19.194C64.8204 18.388 64.1617 17.2527 63.9277 15.788L67.5417 15.242C67.689 15.9007 68.014 16.4163 68.5167 16.789C69.028 17.1617 69.6737 17.348 70.4537 17.348C71.095 17.348 71.589 17.2267 71.9357 16.984C72.2824 16.7327 72.4557 16.386 72.4557 15.944C72.4557 15.6667 72.3864 15.4457 72.2477 15.281C72.109 15.1077 71.797 14.9387 71.3117 14.774C70.835 14.6093 70.0897 14.3927 69.0757 14.124C67.9317 13.8293 67.0174 13.5 66.3327 13.136C65.648 12.772 65.154 12.3387 64.8507 11.836C64.5474 11.3247 64.3957 10.7093 64.3957 9.99C64.3957 9.08867 64.6254 8.30867 65.0847 7.65C65.544 6.98267 66.1897 6.47133 67.0217 6.116C67.8624 5.752 68.8504 5.57 69.9857 5.57C71.0864 5.57 72.0614 5.739 72.9107 6.077C73.76 6.415 74.4447 6.896 74.9647 7.52C75.4934 8.144 75.8184 8.88067 75.9397 9.73L72.3257 10.38C72.265 9.86 72.0397 9.44833 71.6497 9.145C71.2597 8.84167 70.731 8.664 70.0637 8.612C69.4137 8.56867 68.8894 8.65533 68.4907 8.872C68.1007 9.08867 67.9057 9.40067 67.9057 9.808C67.9057 10.0507 67.988 10.2543 68.1527 10.419C68.326 10.5837 68.677 10.7527 69.2057 10.926C69.743 11.0993 70.5577 11.3247 71.6497 11.602C72.7157 11.8793 73.5694 12.2043 74.2107 12.577C74.8607 12.941 75.333 13.383 75.6277 13.903C75.9224 14.4143 76.0697 15.034 76.0697 15.762C76.0697 17.2007 75.5497 18.3317 74.5097 19.155C73.4697 19.9783 72.031 20.39 70.1937 20.39ZM88.4735 20V4.582H82.5715V1.28H97.9115V4.582H92.0095V20H88.4735ZM104.445 20.39C103.006 20.39 101.736 20.0823 100.636 19.467C99.5436 18.843 98.6856 17.9893 98.0616 16.906C97.4463 15.814 97.1386 14.566 97.1386 13.162C97.1386 11.628 97.442 10.2933 98.0486 9.158C98.6553 8.02267 99.4916 7.143 100.558 6.519C101.624 5.88633 102.85 5.57 104.237 5.57C105.71 5.57 106.962 5.91667 107.994 6.61C109.025 7.30333 109.788 8.27833 110.282 9.535C110.776 10.7917 110.949 12.2693 110.802 13.968H107.305V12.668C107.305 11.238 107.075 10.211 106.616 9.587C106.165 8.95433 105.424 8.638 104.393 8.638C103.188 8.638 102.3 9.00633 101.728 9.743C101.164 10.471 100.883 11.55 100.883 12.98C100.883 14.2887 101.164 15.3027 101.728 16.022C102.3 16.7327 103.136 17.088 104.237 17.088C104.93 17.088 105.524 16.9363 106.018 16.633C106.512 16.3297 106.889 15.892 107.149 15.32L110.685 16.334C110.156 17.6167 109.32 18.6133 108.176 19.324C107.04 20.0347 105.797 20.39 104.445 20.39ZM99.7906 13.968V11.342H109.099V13.968H99.7906ZM119.925 20.39C118.469 20.39 117.221 20.065 116.181 19.415C115.141 18.765 114.344 17.881 113.789 16.763C113.234 15.645 112.957 14.384 112.957 12.98C112.957 11.5587 113.243 10.289 113.815 9.171C114.396 8.053 115.21 7.17333 116.259 6.532C117.308 5.89067 118.547 5.57 119.977 5.57C121.632 5.57 123.019 5.99033 124.137 6.831C125.264 7.663 125.983 8.80267 126.295 10.25L122.759 11.186C122.551 10.458 122.187 9.89033 121.667 9.483C121.156 9.07567 120.575 8.872 119.925 8.872C119.18 8.872 118.569 9.054 118.092 9.418C117.615 9.77333 117.264 10.263 117.039 10.887C116.814 11.5023 116.701 12.2 116.701 12.98C116.701 14.202 116.97 15.1943 117.507 15.957C118.053 16.711 118.859 17.088 119.925 17.088C120.722 17.088 121.329 16.906 121.745 16.542C122.161 16.178 122.473 15.658 122.681 14.982L126.295 15.736C125.896 17.2267 125.142 18.375 124.033 19.181C122.924 19.987 121.554 20.39 119.925 20.39ZM138.463 20V13.37C138.463 13.0493 138.446 12.642 138.411 12.148C138.377 11.6453 138.268 11.1427 138.086 10.64C137.904 10.1373 137.605 9.717 137.189 9.379C136.782 9.041 136.201 8.872 135.447 8.872C135.144 8.872 134.819 8.91967 134.472 9.015C134.126 9.11033 133.801 9.29667 133.497 9.574C133.194 9.84267 132.943 10.2413 132.743 10.77C132.553 11.2987 132.457 12.0007 132.457 12.876L130.429 11.914C130.429 10.8047 130.655 9.76467 131.105 8.794C131.556 7.82333 132.232 7.039 133.133 6.441C134.043 5.843 135.187 5.544 136.565 5.544C137.666 5.544 138.563 5.73033 139.256 6.103C139.95 6.47567 140.487 6.948 140.868 7.52C141.258 8.092 141.536 8.69 141.7 9.314C141.865 9.92933 141.965 10.4927 141.999 11.004C142.034 11.5153 142.051 11.888 142.051 12.122V20H138.463ZM128.869 20V1.28H132.015V10.9H132.457V20H128.869Z" fill="white"/>
</svg>
