<svg width="107" height="30" viewBox="0 0 107 30" fill="none" xmlns="http://www.w3.org/2000/svg">
<g clip-path="url(#clip0_540_642)">
<path d="M72.5852 0.215851H66.5859V29.2739H72.5852V0.215851Z" fill="#223034"/>
<path d="M77.252 0.215851H83.2606V15.7005L90.2936 7.94663H97.4794L89.4211 16.3396L97.7602 29.276H90.8791L85.3498 20.5571L83.2606 22.7868V29.2739H77.2561L77.252 0.215851Z" fill="#223034"/>
<path d="M29.596 0.215851H29.9787L30.8647 1.61049L31.7413 0.215851H32.1146V2.72222H31.7912V0.824631L30.8678 2.15955H30.822L29.9464 0.824631V2.72222H29.5908L29.596 0.215851ZM27.8926 0.559534H27.0991V0.215851H29.051V0.559534H28.2524V2.72222H27.8926V0.559534Z" fill="#223034"/>
<path d="M56.7893 18.649V18.5704C56.7893 15.032 54.4214 12.6786 51.6157 12.6786C48.81 12.6786 46.4837 15.032 46.4837 18.5704V18.649C46.4837 22.1875 48.7913 24.5409 51.6157 24.5409C54.4402 24.5409 56.7893 22.2158 56.7893 18.649ZM46.5628 26.4888V29.2833H40.5635V0.215851H46.5628V11.0083C47.2888 9.92263 48.273 9.03739 49.4258 8.43339C50.5785 7.8294 51.863 7.52589 53.1621 7.55056C58.0955 7.55056 62.798 11.4474 62.798 18.5757V18.6543C62.798 25.7794 58.1828 29.6752 53.1621 29.6752C51.892 29.7008 50.6335 29.4265 49.4876 28.8741C48.3416 28.3217 47.3399 27.5065 46.5628 26.494" fill="#223034"/>
<path d="M105.602 23.7204C105.143 23.2448 104.554 22.9171 103.91 22.779C103.265 22.6408 102.595 22.6984 101.983 22.9444C101.372 23.1904 100.846 23.6137 100.473 24.1608C100.101 24.7079 99.8974 25.3542 99.8894 26.0177C99.8814 26.6813 100.069 27.3323 100.428 27.8884C100.788 28.4445 101.303 28.8806 101.908 29.1415C102.514 29.4024 103.183 29.4764 103.83 29.3541C104.478 29.2318 105.074 28.9187 105.545 28.4545L105.574 28.4262C106.197 27.8057 106.549 26.9615 106.555 26.0792C106.56 25.1968 106.217 24.3484 105.602 23.7204Z" fill="#223034"/>
<path d="M12.2434 23.8755C11.7496 24.3842 11.4163 25.0287 11.2855 25.7279C11.1547 26.4271 11.2323 27.1497 11.5084 27.8045C11.7846 28.4594 12.247 29.0172 12.8373 29.4077C13.4276 29.7981 14.1194 30.0038 14.8256 29.9987C15.5317 29.9936 16.2205 29.778 16.8052 29.379C17.3899 28.98 17.8443 28.4156 18.1111 27.7568C18.3779 27.098 18.4452 26.3744 18.3045 25.6772C18.1637 24.98 17.8213 24.3403 17.3203 23.8389C16.9855 23.5037 16.5881 23.2387 16.1511 23.059C15.7142 22.8793 15.2462 22.7886 14.7743 22.792C14.3023 22.7954 13.8357 22.8929 13.4014 23.0789C12.967 23.2648 12.5734 23.5356 12.2434 23.8755Z" fill="#223034"/>
<path d="M25.9827 11.6129C24.0079 11.5512 22.1311 10.7317 20.736 9.32197C19.341 7.91225 18.5331 6.01882 18.4776 4.02885C18.451 3.08029 18.0569 2.1799 17.3798 1.52036C16.7027 0.860812 15.7963 0.4945 14.8545 0.499807H14.7162C13.7746 0.493455 12.8681 0.859582 12.1916 1.51949C11.5151 2.1794 11.1225 3.08041 11.0983 4.02885C11.0428 6.02188 10.2325 7.91798 8.83371 9.32821C7.43488 10.7384 5.55352 11.5559 3.57554 11.6129C2.87357 11.6222 2.18981 11.8393 1.60945 12.2373C1.02909 12.6353 0.57778 13.1966 0.311741 13.8512C0.0457027 14.5058 -0.0233023 15.2248 0.113323 15.9186C0.249948 16.6124 0.586164 17.2504 1.08008 17.7531C1.57401 18.2558 2.2038 18.6009 2.891 18.7455C3.57821 18.8901 4.29245 18.8277 4.94474 18.5662C5.59703 18.3047 6.15854 17.8556 6.55932 17.2749C6.9601 16.6941 7.18243 16.0074 7.19861 15.3002C7.1905 14.7306 7.26049 14.1625 7.4066 13.6122C7.75095 11.909 8.67981 10.3826 10.0301 9.30091C11.3803 8.21922 13.0656 7.65143 14.79 7.69725C16.5149 7.64955 18.2011 8.21665 19.5518 9.29865C20.9024 10.3807 21.8308 11.9082 22.1734 13.6122C22.3188 14.1627 22.3888 14.7306 22.3814 15.3002C22.3886 16.0208 22.6073 16.7232 23.01 17.3188C23.4127 17.9144 23.9813 18.3766 24.6443 18.6471C25.3072 18.9177 26.0348 18.9844 26.7353 18.839C27.4358 18.6936 28.078 18.3426 28.5808 17.8301C29.0837 17.3176 29.4247 16.6666 29.561 15.9591C29.6973 15.2517 29.6227 14.5194 29.3467 13.8545C29.0706 13.1897 28.6054 12.6221 28.0098 12.2232C27.4141 11.8243 26.7145 11.6119 25.9993 11.6129" fill="#223034"/>
<path d="M103.09 2.37855C103.46 2.37855 103.714 2.2109 103.714 1.91332C103.714 1.63879 103.489 1.44809 103.11 1.44809H102.34V2.37855H103.09ZM101.941 1.08135H103.118C103.259 1.07348 103.4 1.09368 103.533 1.14079C103.667 1.18789 103.789 1.26099 103.894 1.35588C103.962 1.42311 104.015 1.50363 104.051 1.59247C104.087 1.68132 104.104 1.7766 104.102 1.87245C104.112 2.06786 104.049 2.2599 103.925 2.41063C103.801 2.56137 103.626 2.65985 103.434 2.68661L104.246 3.73442H103.784L103.03 2.73061H102.356V3.73547H101.94L101.941 1.08135ZM105.278 2.47599C105.297 2.16442 105.254 1.85223 105.152 1.5576C105.049 1.26296 104.89 0.991774 104.683 0.759817C104.475 0.52786 104.224 0.339771 103.944 0.206499C103.664 0.0732265 103.36 -0.00256524 103.051 -0.0164644C102.741 -0.0303635 102.432 0.0179079 102.141 0.12554C101.851 0.233171 101.584 0.398012 101.357 0.610466C101.13 0.822921 100.947 1.07874 100.82 1.36304C100.692 1.64734 100.621 1.95443 100.612 2.26643C100.612 2.33629 100.612 2.40614 100.612 2.47599C100.594 2.78757 100.637 3.09976 100.739 3.39439C100.841 3.68903 101.001 3.96021 101.208 4.19217C101.415 4.42413 101.666 4.61222 101.946 4.74549C102.227 4.87876 102.53 4.95455 102.84 4.96845C103.149 4.98235 103.458 4.93408 103.749 4.82645C104.04 4.71882 104.306 4.55398 104.533 4.34152C104.76 4.12907 104.943 3.87325 105.071 3.58895C105.199 3.30465 105.269 2.99756 105.278 2.68556C105.278 2.6164 105.278 2.5462 105.278 2.47599ZM100.381 2.47599C100.408 1.80898 100.69 1.17822 101.168 0.715788C101.645 0.253354 102.282 -0.00489977 102.945 -0.00489977C103.607 -0.00489977 104.244 0.253354 104.722 0.715788C105.2 1.17822 105.481 1.80898 105.508 2.47599C105.481 3.14301 105.2 3.77377 104.722 4.2362C104.244 4.69863 103.607 4.95689 102.945 4.95689C102.282 4.95689 101.645 4.69863 101.168 4.2362C100.69 3.77377 100.408 3.14301 100.381 2.47599Z" fill="#223034"/>
</g>
<defs>
<clipPath id="clip0_540_642">
<rect width="107" height="30" fill="white"/>
</clipPath>
</defs>
</svg>
